<?xml version="1.0" standalone="no"?>
<!DOCTYPE svg PUBLIC "-//W3C//DTD SVG 1.1//EN" "http://www.w3.org/Graphics/SVG/1.1/DTD/svg11.dtd" >
<svg xmlns="http://www.w3.org/2000/svg">
<metadata>
This is a custom SVG webfont generated by Font Squirrel.
Copyright   : Copyright c 1992 YOFonts All rights reserved Version 110 Designed by Yasuhiro Yamaoka 1992
Designer    : Yamaoka Yasuhiro
Foundry     : YOFonts
Foundry URL : wwwyoworkscom
</metadata>
<defs>
<font id="EauEauSansBookOsF" horiz-adv-x="530" >
<font-face units-per-em="2048" ascent="1638" descent="-410" />
<missing-glyph horiz-adv-x="500" />
<glyph unicode=" " />
<glyph unicode="!" horiz-adv-x="575" d="M182 1518h213l-39 -1139h-137zM190 0v197h197v-197h-197z" />
<glyph unicode="&#x22;" horiz-adv-x="864" d="M150 1124l55 394h205l-131 -394h-129zM483 1124l56 394h204l-131 -394h-129z" />
<glyph unicode="#" horiz-adv-x="1167" d="M45 596v129h240l77 367h-219v129h244l62 297h126l-59 -297h262l62 297h127l-58 -297h213v-129h-241l-76 -367h219v-129h-244l-59 -293h-129l59 293h-262l-59 -293h-129l59 293h-215zM416 725h262l74 367h-260z" />
<glyph unicode="$" horiz-adv-x="1015" d="M68 219l104 107q49 -49 125 -85t166 -44v520l-86 28q-123 41 -202 124t-79 231q0 57 20.5 117.5t64.5 110.5t114 87t168 49v129h106v-125q117 -4 213.5 -51t165.5 -119l-106 -106q-53 53 -120 89t-153 42v-469l47 -16q66 -23 126.5 -53.5t106.5 -75.5t73.5 -108.5 t27.5 -149.5q0 -76 -24.5 -143.5t-73.5 -121t-119.5 -89.5t-163.5 -46v-121h-106v119q-139 10 -238.5 61.5t-156.5 108.5zM270 1100q0 -74 37 -123t123 -78l33 -10v426q-104 -23 -148.5 -86t-44.5 -129zM569 201q104 20 155.5 92t51.5 158t-58.5 145t-148.5 86v-481z" />
<glyph unicode="%" horiz-adv-x="1781" d="M76 1091.5q0 98.5 27.5 180.5t76.5 139t115.5 89t142.5 32t142.5 -32t115.5 -89t77 -139t28 -180.5t-28 -179.5t-77 -138t-115.5 -89t-142.5 -32t-142.5 32t-115.5 89t-76.5 138t-27.5 179.5zM215 1091.5q0 -69.5 16.5 -128t46 -100.5t70.5 -65.5t90 -23.5t90 23.5 t71 65.5t46.5 100.5t16.5 128t-16.5 128t-46.5 101.5t-71 66.5t-90 23.5t-90 -23.5t-70.5 -66.5t-46 -101.5t-16.5 -128zM334 -76l985 1669h129l-985 -1669h-129zM981 424q0 98 27.5 180t77 139.5t116 89t142 31.5t142 -31.5t116 -89t77 -139.5t27.5 -180t-27.5 -179 t-77 -138.5t-116 -89t-142 -31.5t-142 31.5t-116 89t-77 138.5t-27.5 179zM1120 424q0 -70 16.5 -128t46 -100t70.5 -66t90.5 -24t90.5 24t70.5 66t46 100t16.5 128t-16.5 128t-46 101t-70.5 66.5t-90.5 23.5t-90.5 -23.5t-70.5 -66.5t-46 -101t-16.5 -128z" />
<glyph unicode="&#x26;" horiz-adv-x="1394" d="M115 393q0 147 77.5 253t223.5 190q-57 55 -96 102t-63 90t-34 88t-10 98q0 55 22.5 112.5t67.5 106t113.5 78t158.5 29.5q92 0 159 -29.5t112 -78t66.5 -105.5t21.5 -113q0 -70 -19.5 -125t-54.5 -101t-85 -87t-111 -82l393 -389q14 37 26.5 76t21.5 87t13 106.5 t4 134.5h168q0 -90 -7 -164t-21.5 -137.5t-35 -119t-46.5 -106.5l307 -307h-225l-170 170q-109 -106 -226.5 -149.5t-259.5 -43.5q-115 0 -205 31t-154.5 85t-98 131t-33.5 169zM289 395q0 -59 24.5 -109t67.5 -87t100.5 -57.5t122.5 -20.5q106 0 201.5 37t173.5 125 l-461 458q-121 -68 -175 -146.5t-54 -199.5zM379 1214q0 -43 11 -77.5t33.5 -68.5t57.5 -70.5l82 -82.5q115 70 163 138.5t48 160.5q0 33 -13 67t-40 61.5t-63.5 44t-82 16.5t-82 -16.5t-62 -44t-39 -61.5t-13.5 -67z" />
<glyph unicode="'" d="M141 1124l56 394h204l-129 -394h-131z" />
<glyph unicode="(" horiz-adv-x="681" d="M152 758q0 125 21.5 239.5t56 218t81.5 197.5t99 180l137 -69q-49 -82 -91 -167t-75 -178.5t-51.5 -197.5t-18.5 -223t18.5 -224.5t51.5 -200.5t75 -180t91 -161l-137 -68q-51 86 -98.5 179.5t-82 198t-56 218t-21.5 238.5z" />
<glyph unicode=")" horiz-adv-x="681" d="M137 -8q49 82 91 168t74 179t50.5 196.5t18.5 222.5t-18.5 225.5t-50.5 200.5t-74 178t-91 162l135 69q51 -86 98.5 -180t82 -197.5t56 -218t21.5 -239.5t-21.5 -238.5t-56 -218t-81.5 -198t-99 -179.5z" />
<glyph unicode="*" horiz-adv-x="839" d="M76 1229l33 100l258 -86v275h106v-275l260 86l31 -100l-258 -84l160 -221l-84 -62l-162 219l-160 -219l-86 62l162 221z" />
<glyph unicode="+" horiz-adv-x="1138" d="M90 676v135h410v410h137v-410h410v-135h-410v-410h-137v410h-410z" />
<glyph unicode="," d="M125 -197l57 394h205l-131 -394h-131z" />
<glyph unicode="-" horiz-adv-x="675" d="M90 500v137h494v-137h-494z" />
<glyph unicode="." d="M166 0v197h199v-197h-199z" />
<glyph unicode="/" horiz-adv-x="606" d="M39 -76l416 1669h114l-417 -1669h-113z" />
<glyph unicode="0" horiz-adv-x="1335" d="M115 547q0 131 46 235.5t122.5 178t176 113.5t208 40t208 -40t176 -113.5t123 -178t46.5 -235.5t-46.5 -236.5t-123 -179.5t-176 -114t-208 -40t-208 40t-176 114t-122.5 179.5t-46 236.5zM303 547q0 -94 29.5 -170t81 -129t117 -82t137 -29t137 29t117 82t81 129 t29.5 170t-29.5 170t-79 129t-116 81.5t-139.5 28.5q-72 0 -137.5 -28.5t-117 -81.5t-81 -129t-29.5 -170z" />
<glyph unicode="1" horiz-adv-x="757" d="M53 756v151q49 6 101.5 26.5t100.5 47.5t89 56.5t66 54.5h143v-1092h-174v893q-41 -41 -131.5 -82t-194.5 -55z" />
<glyph unicode="2" horiz-adv-x="1138" d="M121 143q205 121 336 209t206.5 158t104.5 128t29 120q0 31 -13.5 65.5t-43 64.5t-78 49t-115.5 19q-104 0 -174 -39.5t-129 -99.5l-119 117q37 35 80 67.5t94 57t112.5 40t135.5 15.5q106 0 188 -29.5t137.5 -80t84 -115t28.5 -131.5q0 -76 -31.5 -145.5t-100.5 -141.5 t-176.5 -147.5t-258.5 -163.5h622v-160h-919v143z" />
<glyph unicode="3" horiz-adv-x="1167" d="M106 -219l117 117q61 -61 131 -101.5t176 -40.5q80 0 142.5 21.5t104.5 58.5t64.5 85t22.5 102q0 51 -22.5 103t-64.5 93t-104.5 66.5t-142.5 25.5h-159v158h159q72 0 128.5 19.5t95.5 53t59.5 77t20.5 92.5q0 51 -20.5 95t-59.5 78t-95.5 53t-128.5 19 q-104 0 -173.5 -39.5t-129.5 -99.5l-116 117q37 35 78.5 67.5t94 57t113 40t133.5 15.5q113 0 204 -30.5t155.5 -84t99.5 -128t35 -160.5q0 -80 -26.5 -135.5t-65.5 -93.5t-84 -60.5t-82 -32.5q59 -16 112.5 -51t92.5 -83t61.5 -108.5t22.5 -123.5q0 -84 -37 -161 t-105.5 -135.5t-166 -93t-216.5 -34.5q-143 0 -252 51t-172 131z" />
<glyph unicode="4" horiz-adv-x="1273" d="M106 0v152l699 940h168v-932h225v-160h-225v-379h-168v379h-699zM319 160h486v690z" />
<glyph unicode="5" horiz-adv-x="1167" d="M123 -219l117 117q61 -61 131.5 -101.5t175.5 -40.5q80 0 142.5 29t104.5 76t64.5 107.5t22.5 121.5q0 63 -22.5 122.5t-64.5 107t-104.5 76t-142.5 28.5t-136.5 -23.5t-97.5 -54.5l-153 78v668h835v-158h-661v-393q49 20 101 31.5t112 11.5q119 0 216 -41t165.5 -109.5 t105.5 -158t37 -185.5q0 -102 -37 -191t-105.5 -156t-165.5 -105.5t-216 -38.5q-143 0 -252 51t-172 131z" />
<glyph unicode="6" horiz-adv-x="1335" d="M137 758q0 174 38 310t112.5 231.5t187.5 145.5t260 50q72 0 137.5 -17.5t121 -43t99.5 -58.5t74 -63l-116 -117q-53 53 -129 96t-187 43q-213 0 -314.5 -145.5t-101.5 -431.5q14 29 46 64.5t79.5 66.5t109.5 52.5t136 21.5q119 0 216.5 -41t166 -109t105 -157t36.5 -185 q0 -102 -36.5 -192.5t-105 -157t-166 -105.5t-216.5 -39q-143 0 -247.5 58.5t-172 163t-100.5 248t-33 311.5zM356 471q0 -63 22.5 -122.5t64.5 -106.5t104.5 -76t142.5 -29t142.5 29t104.5 76t64.5 106.5t22.5 122.5q0 61 -22.5 121.5t-65.5 108t-105.5 76t-142.5 28.5 t-141.5 -28.5t-103.5 -76t-64.5 -108t-22.5 -121.5z" />
<glyph unicode="7" horiz-adv-x="1122" d="M68 934v158h964v-144q-104 -139 -189 -281.5t-156 -300t-130 -341t-115 -404.5h-196q61 221 120.5 404.5t127 340t146.5 295t179 273.5h-751z" />
<glyph unicode="8" horiz-adv-x="1243" d="M115 414q0 57 19.5 112.5t53 103.5t79.5 84t100 54q-12 2 -48 19.5t-75 55.5t-70 98t-31 150.5t33 164t94.5 127t150.5 83t201.5 29.5t200.5 -29.5t149.5 -83t94.5 -127t33 -164t-31 -151.5t-69.5 -98t-75.5 -54.5t-50 -17.5q57 -18 104.5 -55t81.5 -85t52 -103.5 t18 -112.5q0 -88 -34.5 -167t-100 -139.5t-160 -95.5t-212.5 -35q-121 0 -215.5 35t-159 95.5t-99 139.5t-34.5 167zM303 413.5q0 -55.5 19.5 -105.5t59.5 -88t100.5 -60.5t140 -22.5t139 22.5t99.5 60.5t59.5 88t19.5 105.5t-19.5 105.5t-59.5 88t-99.5 60.5t-139 22.5 t-140 -22.5t-100.5 -60.5t-59.5 -88t-19.5 -105.5zM334 1091.5q0 -106.5 72.5 -175t216.5 -68.5q141 0 213.5 68.5t72.5 175t-72.5 175t-213.5 68.5q-143 0 -216 -68.5t-73 -175z" />
<glyph unicode="9" horiz-adv-x="1335" d="M121 623q0 102 37 191t105.5 155.5t165.5 105.5t216 39q143 0 247.5 -59.5t172.5 -164t100.5 -246.5t32.5 -310q0 -348 -150.5 -541.5t-447.5 -193.5q-72 0 -137.5 16t-120.5 43t-100 59.5t-76 63.5l119 117q53 -53 128.5 -97.5t186.5 -44.5q213 0 314.5 145.5 t101.5 432.5q-14 -29 -46 -65t-80 -66.5t-109.5 -52t-135.5 -21.5q-121 0 -217 41t-164.5 109.5t-105.5 158t-37 185.5zM311 623q0 -63 21.5 -123t64.5 -107t105.5 -75.5t144.5 -28.5q80 0 141.5 28.5t103.5 75.5t64.5 106.5t22.5 123.5q0 61 -22.5 121.5t-64.5 107.5 t-104.5 75.5t-142.5 28.5t-142.5 -28.5t-104.5 -75.5t-64.5 -107.5t-22.5 -121.5z" />
<glyph unicode=":" d="M166 0v197h199v-197h-199zM166 895v197h199v-197h-199z" />
<glyph unicode=";" d="M125 -197l57 394h205l-131 -394h-131zM166 895v197h199v-197h-199z" />
<glyph unicode="&#x3c;" horiz-adv-x="591" d="M121 606l213 426h176l-213 -426l213 -424h-176z" />
<glyph unicode="=" horiz-adv-x="1138" d="M90 485v138h957v-138h-957zM90 864v137h957v-137h-957z" />
<glyph unicode="&#x3e;" horiz-adv-x="591" d="M82 182l213 424l-213 426h176l213 -426l-213 -424h-176z" />
<glyph unicode="?" horiz-adv-x="1038" d="M61 1358q39 39 81 71.5t93.5 57t111 39t130.5 14.5q100 0 184 -32.5t144.5 -89t94.5 -131.5t34 -157q0 -61 -12.5 -109t-35 -89t-53 -78t-67.5 -74l-111 -110q-37 -37 -61.5 -68t-37.5 -62.5t-19.5 -70.5t-6.5 -90h-165q0 72 11 128t30.5 99t45 76t52.5 59l110 111 q31 31 54.5 58.5t40 60.5t25.5 70.5t9 88.5q0 47 -19 92.5t-54 80t-84 56t-109 21.5q-57 0 -101 -12t-80 -31.5t-64.5 -45t-53.5 -50.5zM348 0v197h199v-197h-199z" />
<glyph unicode="@" horiz-adv-x="1728" d="M80 780q8 147 73.5 285.5t176 246t260 172t325.5 64.5q178 0 321.5 -58t242 -161.5t144.5 -245.5q35 -108 35 -231q0 -38 -3 -78q-8 -96 -46 -178t-95.5 -142.5t-130 -95t-150.5 -34.5t-119 47t-41 133q-18 -45 -55 -79t-83 -57.5t-94 -36t-89 -12.5q-76 0 -139.5 32 t-106.5 88.5t-61 135.5q-9 41 -9 87q0 43 8 90q16 94 62.5 174t109 136t137 88t150.5 32q41 0 82 -11.5t75 -32t59.5 -49t35.5 -65.5l25 139h133l-111 -624q-3 -17 -3 -33q0 -23 7 -43q12 -33 66 -33q49 0 92 27.5t78 76t58.5 114t29.5 140.5q3 35 3 68q0 102 -29 192 q-38 118 -116.5 203.5t-195.5 134t-264.5 48.5t-272.5 -58.5t-218 -154t-149.5 -216t-68.5 -247.5q-3 -36 -3 -70q0 -106 29 -199q38 -123 116.5 -213t194.5 -141t261 -51q135 0 252 50t215 140l80 -86q-117 -102 -261.5 -160.5t-303.5 -58.5q-172 0 -309.5 63.5t-232.5 173 t-142 257.5q-37 117 -38 248q0 34 3 69zM583 629q11 -57 38.5 -98.5t70.5 -65t98.5 -23.5t106.5 23.5t94 64.5t73 98.5t42 123.5q6 34 6 65q0 29 -5 56q-11 56 -39 98.5t-71 66t-98 23.5q-57 0 -109.5 -23.5t-94.5 -65.5t-70.5 -98.5t-40.5 -121.5q-6 -34 -7 -67 q1 -29 6 -56z" />
<glyph unicode="A" horiz-adv-x="1335" d="M8 0l561 1518h197l561 -1518h-197l-139 387h-649l-137 -387h-197zM399 547h537l-268 751z" />
<glyph unicode="B" horiz-adv-x="1290" d="M197 0v1518h508q115 0 198.5 -30t139 -80t83 -118.5t27.5 -144.5q0 -72 -23.5 -134.5t-67.5 -111.5t-105.5 -82t-137.5 -43q84 -2 153.5 -28.5t120 -72.5t78 -107.5t27.5 -133.5q0 -201 -126 -316.5t-390 -115.5h-485zM379 160h303q166 0 247 72.5t81 207.5 q0 113 -84 181.5t-244 68.5h-303v-530zM379 850h274q135 0 222.5 69.5t87.5 194.5q0 53 -12.5 98t-42 77t-80 50.5t-126.5 18.5h-323v-508z" />
<glyph unicode="C" horiz-adv-x="1318" d="M98 758q0 172 50.5 315.5t143.5 246.5t223 161.5t290 58.5q145 0 260 -48t201 -134l-117 -117q-74 72 -154 105.5t-190 33.5q-113 0 -207 -44t-162.5 -125t-107.5 -195.5t-39 -257.5q0 -141 39 -256t107.5 -196t162.5 -125t207 -44q111 0 190.5 33t153.5 106l117 -116 q-86 -86 -201 -134.5t-260 -48.5q-160 0 -290 58.5t-223 162t-143.5 247t-50.5 313.5z" />
<glyph unicode="D" horiz-adv-x="1472" d="M197 0v1518h403q160 0 300 -47.5t244.5 -141.5t166 -237.5t61.5 -334t-63.5 -332.5t-169 -236.5t-245.5 -141.5t-294 -47h-403zM379 160h221q119 0 225.5 35.5t186.5 109.5t126 186.5t46 266t-46 266.5t-126 187.5t-186.5 110.5t-225.5 36h-221v-1198z" />
<glyph unicode="E" horiz-adv-x="1107" d="M197 0v1518h774v-160h-592v-508h577v-160h-577v-530h606v-160h-788z" />
<glyph unicode="F" horiz-adv-x="1062" d="M197 0v1518h788v-160h-606v-508h592v-160h-592v-690h-182z" />
<glyph unicode="G" horiz-adv-x="1425" d="M98 758q0 172 50.5 315.5t143.5 246.5t227 161.5t300 58.5q160 0 279 -51t198 -131l-116 -117q-66 63 -151 101t-210 38q-117 0 -215 -44t-167.5 -125t-108.5 -195.5t-39 -257.5q0 -141 39 -256t108.5 -196t167.5 -125t215 -44q86 0 166 18.5t135 47.5v434h-354v160h537 v-699q-90 -49 -215 -85t-269 -36q-166 0 -300 58.5t-227 162t-143.5 247t-50.5 313.5z" />
<glyph unicode="H" horiz-adv-x="1456" d="M197 0v1518h182v-668h698v668h183v-1518h-183v690h-698v-690h-182z" />
<glyph unicode="I" horiz-adv-x="575" d="M197 0v1518h182v-1518h-182z" />
<glyph unicode="J" horiz-adv-x="970" d="M8 162l115 114q43 -63 107.5 -101t136.5 -38q100 0 162.5 63.5t62.5 178.5v1139h182v-1139q0 -98 -32.5 -175t-89 -129t-130 -79t-155.5 -27q-117 0 -207.5 53.5t-151.5 139.5z" />
<glyph unicode="K" horiz-adv-x="1236" d="M197 0v1518h182v-713l600 713h227l-645 -744l668 -774h-232l-618 743v-743h-182z" />
<glyph unicode="L" horiz-adv-x="985" d="M197 0v1518h182v-1358h606v-160h-788z" />
<glyph unicode="M" horiz-adv-x="1835" d="M197 0v1518h286l435 -1303l434 1303h286v-1518h-182v1303l-434 -1303h-209l-434 1303v-1303h-182z" />
<glyph unicode="N" horiz-adv-x="1472" d="M197 0v1518h258l637 -1274v1274h182v-1520h-258l-637 1276v-1274h-182z" />
<glyph unicode="O" horiz-adv-x="1548" d="M98 758q0 172 50.5 315.5t139.5 246.5t214 161.5t272.5 58.5t271 -58.5t213 -161.5t139.5 -246.5t50 -315.5q0 -170 -50 -313.5t-139.5 -247t-213 -162t-271 -58.5t-272.5 58.5t-214 162t-139.5 247t-50.5 313.5zM289 758q0 -141 38 -256t104.5 -196t154.5 -125t188 -44 q98 0 187.5 44t155 125t104.5 195.5t39 256.5q0 143 -39 257.5t-104.5 195.5t-155 125t-187.5 44q-100 0 -188 -44t-154.5 -125t-104.5 -195.5t-38 -257.5z" />
<glyph unicode="P" horiz-adv-x="1214" d="M197 0v1518h471q113 0 203 -33t153 -90.5t96 -136t33 -168.5q0 -96 -33 -175t-96 -136.5t-153.5 -88.5t-202.5 -31h-289v-659h-182zM379 819h289q147 0 221 77t74 191q0 57 -18.5 106.5t-55.5 86.5t-92.5 57.5t-128.5 20.5h-289v-539z" />
<glyph unicode="Q" horiz-adv-x="1548" d="M98 758q0 172 50.5 315.5t139.5 246.5t214 161.5t272.5 58.5t271 -58.5t213 -161.5t139.5 -246.5t50 -315.5q0 -174 -51 -317.5t-144 -245.5l265 -134l-123 -122l-275 139q-74 -47 -161 -74t-185 -27q-147 0 -272 58.5t-214 162t-139.5 247t-50.5 313.5zM289 758 q0 -141 38 -256t104.5 -196t154.5 -125t188 -44q98 0 187.5 44t155 125t104.5 195.5t39 256.5q0 143 -39 257.5t-104.5 195.5t-155 125t-187.5 44q-100 0 -188 -44t-154.5 -125t-104.5 -195.5t-38 -257.5z" />
<glyph unicode="R" horiz-adv-x="1290" d="M197 0v1518h508q115 0 198.5 -30t139 -80t83 -118.5t27.5 -144.5q0 -133 -74.5 -233.5t-193.5 -135.5q94 -10 147 -72.5t72 -152.5l110 -551h-194l-105 520q-14 78 -64 124t-136 46h-336v-690h-182zM379 850h274q135 0 222.5 69.5t87.5 194.5q0 53 -12.5 98t-42 77 t-80 50.5t-126.5 18.5h-323v-508z" />
<glyph unicode="S" horiz-adv-x="1130" d="M76 160l117 116q66 -66 157.5 -106.5t202.5 -40.5q145 0 228 81t83 208q0 98 -68.5 160.5t-172.5 97.5l-213 69q-63 20 -118.5 54.5t-96.5 82.5t-65 111.5t-24 145.5q0 70 30 142.5t90.5 132t153.5 97t220 37.5q141 0 255 -51t200 -137l-117 -119q-59 59 -146 103.5 t-192 44.5q-78 0 -135 -23t-95 -57.5t-56.5 -79.5t-18.5 -90q0 -92 50 -145.5t130 -80.5l215 -71q70 -23 135.5 -56.5t116.5 -85t82 -120t31 -162.5q0 -100 -35 -182t-100.5 -141.5t-158.5 -92.5t-208 -33q-84 0 -156.5 16.5t-132 44t-107.5 61.5t-81 69z" />
<glyph unicode="T" horiz-adv-x="1138" d="M14 1366v152h1108v-152h-463v-1366h-182v1366h-463z" />
<glyph unicode="U" horiz-adv-x="1456" d="M197 463v1055h182v-1055q0 -82 26.5 -144.5t73.5 -104.5t111.5 -63.5t138.5 -21.5t137.5 21.5t110.5 63.5t73.5 104.5t26.5 144.5v1055h183v-1055q0 -129 -43 -222.5t-115 -153.5t-169 -89t-204 -29q-109 0 -205 29t-168.5 89t-115.5 153.5t-43 222.5z" />
<glyph unicode="V" horiz-adv-x="1290" d="M14 1518h199l432 -1299l432 1299h197l-522 -1518h-213z" />
<glyph unicode="W" horiz-adv-x="1908" d="M31 1518h196l310 -1239l309 1239h217l309 -1239l309 1239h197l-395 -1518h-221l-308 1225l-307 -1225h-223z" />
<glyph unicode="X" horiz-adv-x="1347" d="M39 0l532 782l-503 736h221l385 -594l383 594h221l-502 -736l533 -782h-219l-416 641l-416 -641h-219z" />
<glyph unicode="Y" horiz-adv-x="1140" d="M-76 1518h219l428 -656l426 656h220l-555 -818v-700h-183v700z" />
<glyph unicode="Z" horiz-adv-x="1062" d="M76 0v160l698 1198h-684v160h881v-160l-699 -1198h713v-160h-909z" />
<glyph unicode="[" horiz-adv-x="636" d="M182 -76v1669h365v-145h-199v-1380h199v-144h-365z" />
<glyph unicode="\" horiz-adv-x="606" d="M39 1593h113l417 -1669h-114z" />
<glyph unicode="]" horiz-adv-x="636" d="M90 68h199v1380h-199v145h365v-1669h-365v144z" />
<glyph unicode="^" horiz-adv-x="681" d="M53 1198l197 350h182l197 -350h-160l-127 219l-129 -219h-160z" />
<glyph unicode="_" horiz-adv-x="743" d="M0 0v121h743v-121h-743z" />
<glyph unicode="`" horiz-adv-x="681" d="M152 1548h204l174 -350h-129z" />
<glyph unicode="a" horiz-adv-x="1153" d="M121 295q0 63 25.5 125.5t84 113t152.5 81t231 30.5h191v113q0 41 -18.5 80t-51.5 68.5t-79 47t-103 17.5q-98 0 -161.5 -29t-110.5 -76l-107 107q63 63 154.5 106t224.5 43q96 0 174 -27.5t132 -76.5t83 -115.5t29 -144.5v-758h-166v182q-33 -90 -123 -147.5t-219 -57.5 q-72 0 -134.5 25t-108.5 68t-72.5 101t-26.5 124zM295 295q0 -74 53 -120t152 -46q80 0 137 34t95 82t55.5 99t17.5 88v68h-213q-80 0 -136.5 -18.5t-92 -48.5t-52 -66.5t-16.5 -71.5z" />
<glyph unicode="b" horiz-adv-x="1267" d="M182 0v1518h166v-600q20 45 58 81.5t85.5 62t101.5 39t105 13.5q94 0 180.5 -40t152 -113.5t105.5 -178t40 -235.5t-40 -236.5t-105.5 -179.5t-151.5 -114t-181 -40q-51 0 -105 13.5t-101.5 38t-85 59.5t-58.5 78v-166h-166zM348 547q0 -94 25.5 -171t69.5 -132.5 t104.5 -85t128 -29.5t127 29.5t103.5 85t69.5 132.5t25.5 171t-24.5 171t-67.5 131t-103.5 84t-129.5 30q-68 0 -128.5 -30t-104.5 -84t-69.5 -131t-25.5 -171z" />
<glyph unicode="c" horiz-adv-x="1001" d="M90 547q0 125 40 229.5t110.5 179t164 116.5t201.5 42q88 0 178 -37t156 -104l-106 -107q-45 47 -103.5 72t-124.5 25q-74 0 -136 -31t-107.5 -86t-71 -132t-25.5 -167q0 -92 25.5 -169t71 -132.5t107.5 -86t136 -30.5q66 0 124 25.5t104 70.5l106 -104 q-66 -68 -156 -106t-178 -38q-109 0 -202 42t-163.5 118t-110.5 180.5t-40 229.5z" />
<glyph unicode="d" horiz-adv-x="1267" d="M90 547q0 131 40 235.5t106.5 178t152.5 113.5t180 40q51 0 104.5 -13.5t100.5 -39t85 -62t59 -81.5v600h167v-1518h-167v166q-20 -43 -58.5 -78t-85.5 -59.5t-100 -38t-105 -13.5q-94 0 -180 40t-152.5 114t-106.5 179.5t-40 236.5zM266 547q0 -94 25.5 -171t70 -132.5 t103.5 -85t126.5 -29.5t127 29.5t103.5 85t70 132.5t26 171t-26 171t-70 131t-103.5 84t-126.5 30q-72 0 -131.5 -30t-102.5 -84t-67.5 -131t-24.5 -171z" />
<glyph unicode="e" horiz-adv-x="1122" d="M90 547q0 125 38 229.5t102.5 179t151.5 116.5t187 42q90 0 175 -35t151 -109.5t104.5 -192.5t38.5 -283h-772q8 -78 36 -144.5t72 -116t106.5 -77t142.5 -27.5q152 0 249 96l107 -104q-74 -74 -156 -109t-200 -35q-115 0 -212.5 42t-168 118t-111.5 180.5t-41 229.5z M274 645h576q-8 68 -31.5 126t-60.5 100t-84 67t-104.5 25t-107.5 -25t-89 -67t-65 -100t-34 -126z" />
<glyph unicode="f" horiz-adv-x="757" d="M45 948v144h213v182q0 49 18.5 95t54.5 82t90 58.5t126 22.5q35 0 75 -5t60 -9v-146q-45 16 -92 17q-90 0 -128 -38t-38 -108v-151h252v-144h-252v-948h-166v948h-213z" />
<glyph unicode="g" horiz-adv-x="1267" d="M90 561q0 125 40 227.5t106.5 174t152.5 111.5t180 40q125 0 216.5 -58.5t132.5 -137.5v174h167v-1016q0 -100 -34.5 -187.5t-102 -152t-165 -101t-222.5 -36.5q-147 0 -246.5 47t-162.5 110l106 107q41 -41 114.5 -77t188.5 -36q74 0 138.5 23.5t113.5 65.5t77 102.5 t28 134.5v137q-41 -86 -132.5 -145.5t-216.5 -59.5q-94 0 -180 40t-152.5 111.5t-106.5 174t-40 227.5zM266 561q0 -88 24.5 -161.5t67.5 -127t102.5 -83t131.5 -29.5q68 0 127 29.5t103 83t70 127t26 161.5q0 86 -26 159t-70 127t-103.5 85t-127 31t-126.5 -31t-103.5 -85 t-70 -127t-25.5 -159z" />
<glyph unicode="h" horiz-adv-x="1273" d="M182 0v1518h166v-609q33 90 124 147.5t226 57.5q182 0 288 -110.5t106 -305.5v-698h-166v698q0 131 -67.5 198t-182.5 67q-143 0 -235.5 -105.5t-92.5 -310.5v-547h-166z" />
<glyph unicode="i" d="M174 1335v183h182v-183h-182zM182 0v1092h166v-1092h-166z" />
<glyph unicode="j" horiz-adv-x="546" d="M-61 -236q23 -6 46 -10t48 -4q90 0 127 38t37 106v1198h168v-1229q0 -49 -18.5 -95.5t-54.5 -82t-90.5 -58t-125.5 -22.5q-35 0 -75 5t-62 11v143zM190 1335v183h181v-183h-181z" />
<glyph unicode="k" horiz-adv-x="1091" d="M182 0v1518h166v-926l502 500h227l-547 -531l584 -561h-242l-524 524v-524h-166z" />
<glyph unicode="l" d="M182 0v1518h166v-1518h-166z" />
<glyph unicode="m" horiz-adv-x="1851" d="M182 0v1092h166v-183q41 94 118 149.5t193 55.5q76 0 132.5 -22.5t94.5 -57.5t61.5 -74.5t33.5 -72.5q53 111 138 169t200 58q168 0 259 -110.5t91 -305.5v-698h-168v698q0 131 -50 198t-161 67q-53 0 -103 -27t-89 -80t-63.5 -131t-24.5 -178v-547h-168v698 q0 131 -51.5 198t-161.5 67q-51 0 -101.5 -27t-90.5 -80t-64.5 -131t-24.5 -178v-547h-166z" />
<glyph unicode="n" horiz-adv-x="1273" d="M182 0v1092h166v-183q33 90 124 147.5t226 57.5q182 0 288 -110.5t106 -305.5v-698h-166v698q0 131 -67.5 198t-182.5 67q-143 0 -235.5 -105.5t-92.5 -310.5v-547h-166z" />
<glyph unicode="o" horiz-adv-x="1183" d="M90 547q0 131 40 235.5t108.5 178t159.5 113.5t193.5 40t194 -40t159 -113.5t107.5 -178t40 -235.5t-40 -236.5t-107.5 -179.5t-159 -114t-194 -40t-193.5 40t-159.5 114t-108.5 179.5t-40 236.5zM266 547q0 -94 25.5 -171t70 -132.5t103.5 -85t126.5 -29.5t127 29.5 t103.5 85t70 132.5t26 171t-25 171t-68 131t-103 84t-130 30q-68 0 -127 -30t-103.5 -84t-70 -131t-25.5 -171z" />
<glyph unicode="p" horiz-adv-x="1267" d="M182 -379v1471h166v-174q20 45 58 81.5t85.5 62t101.5 39t105 13.5q94 0 180.5 -40t152 -113.5t105.5 -178t40 -235.5t-40 -236.5t-105.5 -179.5t-151.5 -114t-181 -40q-51 0 -105 13.5t-101.5 38t-85 59.5t-58.5 78v-545h-166zM348 547q0 -94 25.5 -171t69.5 -132.5 t104.5 -85t128 -29.5t127 29.5t103.5 85t69.5 132.5t25.5 171t-24.5 171t-67.5 131t-103.5 84t-129.5 30q-68 0 -128.5 -30t-104.5 -84t-69.5 -131t-25.5 -171z" />
<glyph unicode="q" horiz-adv-x="1267" d="M90 547q0 131 40 235.5t106.5 178t152.5 113.5t180 40q51 0 104.5 -13.5t100.5 -39t85 -62t59 -81.5v174h167v-1471h-167v545q-20 -43 -58.5 -78t-85.5 -59.5t-100 -38t-105 -13.5q-94 0 -180 40t-152.5 114t-106.5 179.5t-40 236.5zM266 547q0 -94 25.5 -171t70 -132.5 t103.5 -85t126.5 -29.5t127 29.5t103.5 85t70 132.5t26 171t-26 171t-70 131t-103.5 84t-126.5 30q-72 0 -131.5 -30t-102.5 -84t-67.5 -131t-24.5 -171z" />
<glyph unicode="r" horiz-adv-x="757" d="M182 0v1092h166v-166q53 104 140 146t225 42v-158q-365 0 -365 -409v-547h-166z" />
<glyph unicode="s" horiz-adv-x="917" d="M76 121l106 104q37 -35 106.5 -69.5t160.5 -34.5q104 0 161.5 47t57.5 119q0 57 -39 98t-125 70l-164 55q-131 43 -190.5 117.5t-59.5 183.5q0 59 23.5 115.5t71.5 99.5t119 69.5t167 26.5q119 0 206 -43t150 -106l-106 -107q-41 41 -99.5 73t-150.5 32q-51 0 -90 -14.5 t-64.5 -37t-38 -51t-12.5 -57.5q0 -55 37 -90t115 -62l164 -53q139 -47 199.5 -129t60.5 -190q0 -61 -24.5 -118.5t-74 -101.5t-123 -71t-171.5 -27q-121 0 -219.5 47.5t-153.5 104.5z" />
<glyph unicode="t" horiz-adv-x="757" d="M45 948v144h213v311h166v-311h252v-144h-252v-676q0 -68 38 -105.5t128 -37.5q25 0 47 4t45 10v-143q-20 -6 -60 -10t-75 -4q-72 0 -126 22.5t-90 58t-54.5 82t-18.5 95.5v704h-213z" />
<glyph unicode="u" horiz-adv-x="1273" d="M182 395v697h166v-697q0 -133 68.5 -199.5t183.5 -66.5q141 0 233.5 105.5t92.5 312.5v545h166v-1092h-166v182q-33 -90 -124 -147.5t-227 -57.5q-182 0 -287.5 111.5t-105.5 306.5z" />
<glyph unicode="v" horiz-adv-x="1107" d="M14 1092h191l342 -918l356 918h189l-447 -1092h-196z" />
<glyph unicode="w" horiz-adv-x="1617" d="M45 1092h186l242 -895l250 895h172l250 -895l239 895h187l-322 -1092h-211l-229 825l-229 -825h-213z" />
<glyph unicode="x" horiz-adv-x="1091" d="M61 0l388 561l-369 531h205l260 -394l262 394h207l-369 -531l387 -561h-201l-284 428l-287 -428h-199z" />
<glyph unicode="y" horiz-adv-x="1107" d="M14 1092h191l342 -918l356 918h189l-543 -1321q-6 -16 -22.5 -44t-47 -54.5t-80 -47t-120.5 -20.5q-35 0 -75 5t-61 11v143q23 -6 45.5 -10t47.5 -4q45 0 72.5 8.5t44 21.5t25.5 28.5t15 29.5l60 148z" />
<glyph unicode="z" horiz-adv-x="925" d="M90 0v143l533 805h-517v144h713v-144l-530 -796h545v-152h-744z" />
<glyph unicode="{" horiz-adv-x="729" d="M84 682v152h45q68 0 117 49t49 118v365q0 49 19.5 93t52 77t77.5 52.5t95 19.5h125v-135h-103q-41 0 -69.5 -30t-28.5 -71v-371q0 -47 -17.5 -89t-46 -74.5t-67.5 -53t-82 -26.5q43 -6 82 -26.5t67.5 -53.5t46 -74t17.5 -88v-373q0 -41 28.5 -69.5t69.5 -28.5h103v-135 h-125q-49 0 -94.5 19.5t-78 52t-52 76.5t-19.5 94v364q0 70 -48 118t-118 48h-45z" />
<glyph unicode="|" horiz-adv-x="653" d="M266 -379v1897h121v-1897h-121z" />
<glyph unicode="}" horiz-adv-x="729" d="M63 45h103q41 0 70.5 28.5t29.5 69.5v373q0 47 17.5 88t46 74t66.5 53.5t81 26.5q-43 6 -81 26.5t-66.5 53t-46 74.5t-17.5 89v371q0 41 -29.5 71t-70.5 30h-103v135h127q49 0 93.5 -19.5t77 -52.5t52 -77t19.5 -93v-365q0 -70 49 -118.5t119 -48.5h45v-152h-45 q-72 0 -120 -48t-48 -118v-364q0 -49 -19.5 -93.5t-52 -77t-76.5 -52t-94 -19.5h-127v135z" />
<glyph unicode="~" horiz-adv-x="868" d="M53 616l90 91q31 31 73 49t89 18q49 0 87 -15.5t73 -51.5l24 -25q31 -29 76 -29q23 0 42.5 8.5t33.5 20.5l90 92l86 -86l-92 -90q-31 -31 -72 -49.5t-88 -18.5q-49 0 -91 19.5t-71 48.5l-24 25q-31 31 -74 30q-23 0 -43 -9t-33 -21l-92 -93z" />
<glyph unicode="&#xa1;" horiz-adv-x="575" d="M182 0l37 1139h137l39 -1139h-213zM190 1319v199h197v-199h-197z" />
<glyph unicode="&#xa2;" horiz-adv-x="1001" d="M90 757.5q0 112.5 33 209t91 170t138 121t172 61.5v199h90v-191q86 -2 173 -39t153 -102l-106 -107q-43 45 -100.5 70t-119.5 27v-834q61 0 119 25.5t101 70.5l106 -106q-66 -66 -153 -102.5t-173 -39.5v-190h-90v197q-92 14 -172 62t-138 122t-91 169t-33 207.5z M266 758q0 -154 72 -263.5t186 -142.5v813q-117 -33 -187.5 -142t-70.5 -265z" />
<glyph unicode="&#xa3;" horiz-adv-x="1114" d="M76 0v160h174v499h-174v99h174v350q0 90 29.5 169t85 137.5t134.5 92t177 33.5q80 0 140.5 -16.5t108.5 -43t85 -58t69 -64.5l-116 -117q-27 27 -55.5 51.5t-62.5 44t-76 31.5t-93 12q-55 0 -102.5 -22.5t-80 -60t-51 -87t-18.5 -102.5v-350h258v-99h-258v-499h649v-160 h-997z" />
<glyph unicode="&#xa5;" horiz-adv-x="1230" d="M-31 1518h221l426 -656l426 656h220l-490 -719h307v-99h-372v-135h372v-100h-372v-465h-183v465h-372v100h372v135h-372v99h307z" />
<glyph unicode="&#xa6;" horiz-adv-x="653" d="M266 -76v721h121v-721h-121zM266 872v721h121v-721h-121z" />
<glyph unicode="&#xa7;" horiz-adv-x="948" d="M90 805q0 61 23.5 117.5t70.5 101.5q-78 78 -78 205q0 57 24 113.5t71 100.5t117.5 70.5t166.5 26.5q119 0 206 -44t151 -105l-107 -107q-41 41 -99 73t-151 32q-51 0 -90 -14.5t-64.5 -37t-37.5 -51.5t-12 -57q0 -55 36.5 -90t114.5 -62l164 -55q141 -47 201.5 -129 t60.5 -188q0 -61 -23.5 -118t-70.5 -102q78 -78 78 -204q0 -59 -23.5 -114.5t-71 -99.5t-119 -71t-165.5 -27q-119 0 -206 44t-151 108l107 104q41 -41 99.5 -72.5t150.5 -31.5q51 0 90 14.5t64.5 37t38 51t12.5 57.5q0 55 -37 90t-115 61l-164 55q-141 47 -201.5 129.5 t-60.5 188.5zM266 805q0 -57 38 -98t126 -70l182 -62q70 47 70 130q0 57 -38 98t-126 69l-182 62q-70 -47 -70 -129z" />
<glyph unicode="&#xa8;" horiz-adv-x="591" d="M39 1343v166h166v-166h-166zM387 1343v166h166v-166h-166z" />
<glyph unicode="&#xa9;" horiz-adv-x="1775" d="M129 757.5q0 157.5 59.5 296t163 242t240.5 163t294.5 59.5t296 -59.5t242 -163t163 -242t59.5 -296t-59.5 -294.5t-163 -240.5t-242 -163t-296 -59.5t-294.5 59.5t-240.5 163t-163 240.5t-59.5 294.5zM213 758q0 -139 53 -262t144.5 -214.5t214.5 -144.5t262 -53 q141 0 264 53t214 144.5t144.5 214t53.5 262.5q0 141 -53.5 264t-144.5 214t-214 144.5t-264 53.5q-139 0 -262 -53.5t-214.5 -144.5t-144.5 -214t-53 -264zM430 757.5q0 112.5 34 208t95.5 164t147.5 106.5t190 38q94 0 171 -32t132 -87l-78 -78q-47 47 -100 69.5 t-125 22.5q-74 0 -137.5 -28.5t-108.5 -82.5t-70.5 -130t-25.5 -170t25.5 -170t70.5 -129t108.5 -82t137.5 -29q72 0 125 22.5t100 69.5l78 -78q-55 -55 -132 -86.5t-171 -31.5q-104 0 -190 37.5t-147.5 106.5t-95.5 163t-34 206.5z" />
<glyph unicode="&#xaa;" horiz-adv-x="827" d="M102 963q0 45 17.5 88t57.5 77.5t105.5 56t159.5 21.5h133v78q0 59 -48 103.5t-126 44.5q-68 0 -112.5 -20.5t-77.5 -51.5l-74 74q45 43 108.5 73.5t155.5 30.5q135 0 212 -71.5t77 -182.5v-526h-115v127q-23 -61 -85 -101.5t-152 -40.5q-49 0 -92 17.5t-75 46.5 t-50.5 69t-18.5 87zM221 963q0 -51 37 -83t107 -32q55 0 95 23.5t65.5 56.5t37.5 69.5t12 61.5v47h-147q-55 0 -94 -13.5t-64.5 -34t-37 -45.5t-11.5 -50z" />
<glyph unicode="&#xab;" horiz-adv-x="909" d="M121 606l213 426h176l-213 -426l213 -424h-176zM440 606l213 426h174l-211 -426l211 -424h-174z" />
<glyph unicode="&#xad;" horiz-adv-x="675" d="M90 500v137h494v-137h-494z" />
<glyph unicode="&#xae;" horiz-adv-x="1775" d="M129 757.5q0 157.5 59.5 296t163 242t240.5 163t294.5 59.5t296 -59.5t242 -163t163 -242t59.5 -296t-59.5 -294.5t-163 -240.5t-242 -163t-296 -59.5t-294.5 59.5t-240.5 163t-163 240.5t-59.5 294.5zM213 758q0 -139 53 -262t144.5 -214.5t214.5 -144.5t262 -53 q141 0 264 53t214 144.5t144.5 214t53.5 262.5q0 141 -53.5 264t-144.5 214t-214 144.5t-264 53.5q-139 0 -262 -53.5t-214.5 -144.5t-144.5 -214t-53 -264zM582 258v1002h333q76 0 131.5 -19.5t92.5 -53.5t55 -78t18 -95q0 -88 -50 -154.5t-128 -89.5q63 -6 98 -47t48 -100 l71 -365h-127l-67 344q-10 51 -44 82t-91 31h-222v-457h-118zM700 819h181q92 0 148 46t56 128q0 72 -35.5 117t-134.5 45h-215v-336z" />
<glyph unicode="&#xaf;" horiz-adv-x="681" d="M115 1350v129h454v-129h-454z" />
<glyph unicode="&#xb0;" horiz-adv-x="729" d="M76 1251.5q0 59.5 22.5 112.5t61.5 92t92 61.5t112.5 22.5t112.5 -22.5t92 -61.5t61.5 -92t22.5 -112.5t-22.5 -113t-61.5 -92t-92 -61t-112.5 -22.5t-112.5 22.5t-92 61t-61.5 92t-22.5 113zM197 1251.5q0 -69.5 49 -118t118.5 -48.5t117.5 48.5t48 118t-48 118.5 t-117.5 49t-118.5 -49t-49 -118.5z" />
<glyph unicode="&#xb1;" horiz-adv-x="1138" d="M90 152v137h957v-137h-957zM90 788v138h410v409h137v-409h410v-138h-410v-409h-137v409h-410z" />
<glyph unicode="&#xb2;" horiz-adv-x="780" d="M76 506v94q135 133 223 229.5t141.5 169t75 130t21.5 114.5q0 35 -11.5 67.5t-34 58.5t-55.5 41t-76 15q-72 0 -116.5 -26.5t-85.5 -67.5l-78 78q47 47 112.5 84t167.5 37q70 0 126.5 -22.5t95.5 -61.5t60.5 -91t21.5 -112q0 -63 -26 -127.5t-78 -140.5t-134 -164 l-193 -199h461v-106h-618z" />
<glyph unicode="&#xb3;" horiz-adv-x="864" d="M106 612l78 76q41 -41 87 -66.5t118 -25.5q106 0 164.5 58.5t58.5 131.5q0 37 -15 73t-44 62.5t-70 43t-94 16.5h-106v104h106q96 0 149.5 49.5t53.5 121t-53.5 120.5t-149.5 49q-72 0 -117 -26.5t-86 -67.5l-77 78q47 47 114.5 84t165.5 37q150 0 239 -77t89 -198 q0 -49 -17.5 -87t-43 -65.5t-55.5 -46t-54 -24.5q39 -10 73.5 -34.5t61.5 -58.5t41 -74t14 -79q0 -59 -24.5 -112t-70.5 -94t-109.5 -66t-143.5 -25q-98 0 -170 35t-113 88z" />
<glyph unicode="&#xb4;" horiz-adv-x="681" d="M152 1198l174 350h204l-247 -350h-131z" />
<glyph unicode="&#xb5;" horiz-adv-x="1273" d="M182 -379v1471h166v-697q0 -133 68.5 -199.5t183.5 -66.5q141 0 233.5 105.5t92.5 312.5v545h166v-1092h-166v182q-33 -90 -124 -147.5t-227 -57.5q-78 0 -134 21.5t-93 62.5v-440h-166z" />
<glyph unicode="&#x3bc;" horiz-adv-x="1273" d="M182 -379v1471h166v-697q0 -133 68.5 -199.5t183.5 -66.5q141 0 233.5 105.5t92.5 312.5v545h166v-1092h-166v182q-33 -90 -124 -147.5t-227 -57.5q-78 0 -134 21.5t-93 62.5v-440h-166z" />
<glyph unicode="&#xb6;" horiz-adv-x="1122" d="M61 1100q0 86 33 161.5t89.5 133t132 90.5t161.5 33h463v-1897h-160v1751h-143v-1751h-160v1061q-86 0 -161.5 33t-132 90t-89.5 133t-33 162z" />
<glyph unicode="&#xb7;" d="M166 508v197h199v-197h-199z" />
<glyph unicode="&#xb8;" horiz-adv-x="712" d="M137 -324l60 62q18 -16 46.5 -28.5t63.5 -12.5q55 0 82 23.5t27 52.5q0 35 -37 57.5t-113 22.5l72 147h106l-38 -80q53 -8 97 -45t44 -102q0 -29 -15.5 -57.5t-44 -51t-72.5 -37t-100 -14.5q-63 0 -104 19t-74 44z" />
<glyph unicode="&#xb9;" horiz-adv-x="667" d="M90 1292v103q33 4 69 17t67.5 31.5t59 38t44.5 36.5h94v-1012h-117v878q-27 -27 -87 -54.5t-130 -37.5z" />
<glyph unicode="&#xba;" horiz-adv-x="876" d="M90 1139q0 90 27.5 162.5t75 124t111 79t135 27.5t135 -27.5t110.5 -79t74.5 -124t27.5 -162.5q0 -92 -27.5 -165t-74.5 -124t-110.5 -79t-135 -28t-135 28t-111 79t-75 124t-27.5 165zM213 1139q0 -133 64.5 -212t161 -79t161 79t64.5 212q0 131 -62.5 209.5 t-163.5 78.5q-96 0 -160.5 -78.5t-64.5 -209.5z" />
<glyph unicode="&#xbb;" horiz-adv-x="909" d="M82 182l213 424l-213 426h176l213 -426l-213 -424h-176zM401 182l211 424l-211 426h174l213 -426l-213 -424h-174z" />
<glyph unicode="&#xbc;" horiz-adv-x="1630" d="M90 1292v103q33 4 69 17t67.5 31.5t59 38t44.5 36.5h94v-1012h-117v878q-27 -27 -87 -54.5t-130 -37.5zM197 -76l987 1669h129l-987 -1669h-129zM807 254v100l467 658h110v-652h152v-106h-152v-254h-110v254h-467zM940 360h334v480z" />
<glyph unicode="&#xbd;" horiz-adv-x="1714" d="M90 1292v103q33 4 69 17t67.5 31.5t59 38t44.5 36.5h94v-1012h-117v878q-27 -27 -87 -54.5t-130 -37.5zM197 -76l987 1669h129l-987 -1669h-129zM1024 96q135 133 223 229.5t141.5 169t75 130t21.5 112.5q0 35 -11.5 68t-34 58.5t-55 41t-75.5 15.5q-72 0 -117 -26 t-86 -67l-80 76q49 49 114.5 86t168.5 37q70 0 126 -22.5t95 -61.5t60.5 -91t21.5 -113.5t-25.5 -127t-79 -140.5t-134.5 -164l-191 -200h460v-106h-618v96z" />
<glyph unicode="&#xbe;" horiz-adv-x="1857" d="M106 612l78 76q41 -41 87 -66.5t118 -25.5q106 0 164.5 58.5t58.5 131.5q0 37 -15 73t-44 62.5t-70 43t-94 16.5h-106v104h106q96 0 149.5 49.5t53.5 121t-53.5 120.5t-149.5 49q-72 0 -117 -26.5t-86 -67.5l-77 78q47 47 114.5 84t165.5 37q150 0 239 -77t89 -198 q0 -49 -17.5 -87t-43 -65.5t-55.5 -46t-54 -24.5q39 -10 73.5 -34.5t61.5 -58.5t41 -74t14 -79q0 -59 -24.5 -112t-70.5 -94t-109.5 -66t-143.5 -25q-98 0 -170 35t-113 88zM424 -76l987 1669h129l-987 -1669h-129zM1034 254v100l467 658h111v-652h151v-106h-151v-254h-111 v254h-467zM1167 360h334v480z" />
<glyph unicode="&#xbf;" horiz-adv-x="1038" d="M106 387q0 61 12.5 109.5t34 89.5t52.5 76.5t67 72.5l111 111q37 37 61.5 67.5t38 62.5t19.5 70.5t6 92.5h168q0 -74 -12.5 -129.5t-32 -98.5t-45 -75.5t-51.5 -59.5l-111 -112q-29 -29 -53.5 -56.5t-41 -60.5t-25.5 -71t-9 -89q0 -47 19.5 -92t55.5 -80t84 -56.5 t107 -21.5q115 0 183.5 44t117.5 95l117 -116q-78 -78 -176 -130.5t-242 -52.5q-100 0 -183 33t-143.5 89.5t-94.5 130t-34 157.5zM494 1319v199h196v-199h-196z" />
<glyph unicode="&#xc0;" horiz-adv-x="1335" d="M8 0l561 1518h197l561 -1518h-197l-139 387h-649l-137 -387h-197zM399 547h537l-268 751zM453 1933h204l177 -348h-132z" />
<glyph unicode="&#xc1;" horiz-adv-x="1335" d="M8 0l561 1518h197l561 -1518h-197l-139 387h-649l-137 -387h-197zM399 547h537l-268 751zM494 1585l174 348h204l-249 -348h-129z" />
<glyph unicode="&#xc2;" horiz-adv-x="1335" d="M8 0l561 1518h197l561 -1518h-197l-139 387h-649l-137 -387h-197zM379 1585l196 348h183l198 -348h-161l-127 219l-127 -219h-162zM399 547h537l-268 751z" />
<glyph unicode="&#xc3;" horiz-adv-x="1335" d="M8 0l561 1518h197l561 -1518h-197l-139 387h-649l-137 -387h-197zM319 1599q0 47 17.5 89.5t48.5 73t73 49t89 18.5q49 0 86 -15.5t74 -52.5l24 -24q31 -31 74 -31t74.5 31.5t31.5 74.5h121q0 -47 -17.5 -88t-48 -71.5t-72.5 -49t-89 -18.5t-89 18.5t-71 49.5l-24 24 q-29 29 -74 29t-76 -30.5t-31 -76.5h-121zM399 547h537l-268 751z" />
<glyph unicode="&#xc4;" horiz-adv-x="1335" d="M8 0l561 1518h197l561 -1518h-197l-139 387h-649l-137 -387h-197zM399 547h537l-268 751zM410 1683v168h165v-168h-165zM758 1683v168h168v-168h-168z" />
<glyph unicode="&#xc5;" horiz-adv-x="1335" d="M8 0l561 1518h197l561 -1518h-197l-139 387h-649l-137 -387h-197zM399 547h537l-268 751zM500 1745q0 68 49 117t119 49q68 0 117 -49.5t49 -116.5q0 -70 -49.5 -119t-116.5 -49q-70 0 -119 49t-49 119zM553 1745q0 -47 34 -81t81 -34t79.5 34t32.5 81t-32.5 80t-79.5 33 t-81 -33t-34 -80z" />
<glyph unicode="&#xc6;" horiz-adv-x="1775" d="M-129 0l903 1518h864v-160h-591v-508h577v-160h-577v-530h606v-160h-789v387h-563l-225 -387h-205zM393 547h471v811z" />
<glyph unicode="&#xc7;" horiz-adv-x="1318" d="M98 758q0 172 50.5 315.5t143.5 246.5t223 161.5t290 58.5q145 0 260 -48t201 -134l-117 -117q-74 72 -154 105.5t-190 33.5q-113 0 -207 -44t-162.5 -125t-107.5 -195.5t-39 -257.5q0 -141 39 -256t107.5 -196t162.5 -125t207 -44q111 0 190.5 33t153.5 106l117 -116 q-84 -84 -193.5 -131t-249.5 -52l-28 -57q53 -8 98 -45t45 -102q0 -29 -15.5 -57.5t-45 -51t-72.5 -37t-100 -14.5q-63 0 -103.5 19.5t-75.5 43.5l62 62q18 -16 46 -28.5t64 -12.5q53 0 80 23.5t27 52.5q0 35 -36 57.5t-114 22.5l64 129q-141 14 -256 78.5t-196 166 t-125 236.5t-44 295z" />
<glyph unicode="&#xc8;" horiz-adv-x="1107" d="M197 0v1518h774v-160h-592v-508h577v-160h-577v-530h606v-160h-788zM379 1933h205l174 -348h-129z" />
<glyph unicode="&#xc9;" horiz-adv-x="1107" d="M197 0v1518h774v-160h-592v-508h577v-160h-577v-530h606v-160h-788zM455 1585l174 348h205l-248 -348h-131z" />
<glyph unicode="&#xca;" horiz-adv-x="1107" d="M197 0v1518h774v-160h-592v-508h577v-160h-577v-530h606v-160h-788zM303 1585l197 348h182l199 -348h-162l-127 219l-127 -219h-162z" />
<glyph unicode="&#xcb;" horiz-adv-x="1107" d="M197 0v1518h774v-160h-592v-508h577v-160h-577v-530h606v-160h-788zM342 1683v168h166v-168h-166zM690 1683v168h168v-168h-168z" />
<glyph unicode="&#xcc;" horiz-adv-x="575" d="M39 1933h205l174 -348h-131zM197 0v1518h182v-1518h-182z" />
<glyph unicode="&#xcd;" horiz-adv-x="575" d="M160 1585l174 348h205l-250 -348h-129zM197 0v1518h182v-1518h-182z" />
<glyph unicode="&#xce;" horiz-adv-x="575" d="M0 1585l197 348h182l196 -348h-159l-127 219l-127 -219h-162zM197 0v1518h182v-1518h-182z" />
<glyph unicode="&#xcf;" horiz-adv-x="575" d="M31 1683v168h166v-168h-166zM197 0v1518h182v-1518h-182zM379 1683v168h168v-168h-168z" />
<glyph unicode="&#xd0;" horiz-adv-x="1472" d="M39 690v137h158v691h403q160 0 300 -47.5t244.5 -141.5t166 -237.5t61.5 -334t-63.5 -332.5t-169 -236.5t-245.5 -141.5t-294 -47h-403v690h-158zM379 160h221q119 0 225.5 35.5t186.5 109.5t126 186.5t46 266t-46 266.5t-126 187.5t-186.5 110.5t-225.5 36h-221v-531 h160v-137h-160v-530z" />
<glyph unicode="&#xd1;" horiz-adv-x="1472" d="M197 0v1518h258l637 -1274v1274h182v-1520h-258l-637 1276v-1274h-182zM379 1599q0 47 18.5 89.5t49 73t71.5 49t88 18.5q51 0 88 -15.5t74 -52.5l25 -24q31 -31 73.5 -31t74.5 31.5t32 74.5h121q0 -47 -18.5 -88t-49.5 -71.5t-72 -49t-88 -18.5t-89 18.5t-72 49.5 l-23 24q-31 29 -76 29t-75.5 -30.5t-30.5 -76.5h-121z" />
<glyph unicode="&#xd2;" horiz-adv-x="1548" d="M98 758q0 172 50.5 315.5t139.5 246.5t214 161.5t272.5 58.5t271 -58.5t213 -161.5t139.5 -246.5t50 -315.5q0 -170 -50 -313.5t-139.5 -247t-213 -162t-271 -58.5t-272.5 58.5t-214 162t-139.5 247t-50.5 313.5zM289 758q0 -141 38 -256t104.5 -196t154.5 -125t188 -44 q98 0 187.5 44t155 125t104.5 195.5t39 256.5q0 143 -39 257.5t-104.5 195.5t-155 125t-187.5 44q-100 0 -188 -44t-154.5 -125t-104.5 -195.5t-38 -257.5zM459 1933h205l176 -348h-131z" />
<glyph unicode="&#xd3;" horiz-adv-x="1548" d="M98 758q0 172 50.5 315.5t139.5 246.5t214 161.5t272.5 58.5t271 -58.5t213 -161.5t139.5 -246.5t50 -315.5q0 -170 -50 -313.5t-139.5 -247t-213 -162t-271 -58.5t-272.5 58.5t-214 162t-139.5 247t-50.5 313.5zM289 758q0 -141 38 -256t104.5 -196t154.5 -125t188 -44 q98 0 187.5 44t155 125t104.5 195.5t39 256.5q0 143 -39 257.5t-104.5 195.5t-155 125t-187.5 44q-100 0 -188 -44t-154.5 -125t-104.5 -195.5t-38 -257.5zM705 1585l176 348h204l-249 -348h-131z" />
<glyph unicode="&#xd4;" horiz-adv-x="1548" d="M98 758q0 172 50.5 315.5t139.5 246.5t214 161.5t272.5 58.5t271 -58.5t213 -161.5t139.5 -246.5t50 -315.5q0 -170 -50 -313.5t-139.5 -247t-213 -162t-271 -58.5t-272.5 58.5t-214 162t-139.5 247t-50.5 313.5zM289 758q0 -141 38 -256t104.5 -196t154.5 -125t188 -44 q98 0 187.5 44t155 125t104.5 195.5t39 256.5q0 143 -39 257.5t-104.5 195.5t-155 125t-187.5 44q-100 0 -188 -44t-154.5 -125t-104.5 -195.5t-38 -257.5zM485 1585l197 348h182l199 -348h-162l-127 219l-127 -219h-162z" />
<glyph unicode="&#xd5;" horiz-adv-x="1548" d="M98 758q0 172 50.5 315.5t139.5 246.5t214 161.5t272.5 58.5t271 -58.5t213 -161.5t139.5 -246.5t50 -315.5q0 -170 -50 -313.5t-139.5 -247t-213 -162t-271 -58.5t-272.5 58.5t-214 162t-139.5 247t-50.5 313.5zM289 758q0 -141 38 -256t104.5 -196t154.5 -125t188 -44 q98 0 187.5 44t155 125t104.5 195.5t39 256.5q0 143 -39 257.5t-104.5 195.5t-155 125t-187.5 44q-100 0 -188 -44t-154.5 -125t-104.5 -195.5t-38 -257.5zM416 1599q0 47 18.5 89.5t49 73t71.5 49t88 18.5q51 0 88 -15.5t74 -52.5l22 -24q33 -31 76 -31t75 31.5t32 74.5 h120q0 -47 -18 -88t-49 -71.5t-72 -49t-88 -18.5t-90 18.5t-72 49.5l-24 24q-29 29 -74 29t-75.5 -30.5t-30.5 -76.5h-121z" />
<glyph unicode="&#xd6;" horiz-adv-x="1548" d="M98 758q0 172 50.5 315.5t139.5 246.5t214 161.5t272.5 58.5t271 -58.5t213 -161.5t139.5 -246.5t50 -315.5q0 -170 -50 -313.5t-139.5 -247t-213 -162t-271 -58.5t-272.5 58.5t-214 162t-139.5 247t-50.5 313.5zM289 758q0 -141 38 -256t104.5 -196t154.5 -125t188 -44 q98 0 187.5 44t155 125t104.5 195.5t39 256.5q0 143 -39 257.5t-104.5 195.5t-155 125t-187.5 44q-100 0 -188 -44t-154.5 -125t-104.5 -195.5t-38 -257.5zM516 1683v168h166v-168h-166zM864 1683v168h168v-168h-168z" />
<glyph unicode="&#xd7;" horiz-adv-x="1138" d="M143 416l328 327l-328 328l99 96l327 -327l328 327l96 -96l-327 -328l327 -327l-96 -97l-328 328l-327 -328z" />
<glyph unicode="&#xd8;" horiz-adv-x="1548" d="M98 758q0 172 50.5 315.5t139.5 246.5t214 161.5t272 58.5q106 0 200.5 -30.5t172.5 -86.5l113 170h135l-162 -243q102 -106 158.5 -257t56.5 -335q0 -170 -50 -313.5t-139.5 -247t-213 -162t-271.5 -58.5q-106 0 -200.5 31t-172.5 86l-112 -170h-137l161 244 q-102 104 -158.5 256t-56.5 334zM289 758q0 -135 33.5 -245t95.5 -189l633 954q-59 49 -130 75.5t-147 26.5q-100 0 -188 -44t-154.5 -125t-104.5 -195.5t-38 -257.5zM496 238q123 -100 278 -101q98 0 187.5 44t155 125t104.5 195.5t39 256.5q0 135 -35 244.5t-95 191.5z " />
<glyph unicode="&#xd9;" horiz-adv-x="1456" d="M197 463v1055h182v-1055q0 -82 26.5 -144.5t73.5 -104.5t111.5 -63.5t138.5 -21.5t137.5 21.5t110.5 63.5t73.5 104.5t26.5 144.5v1055h183v-1055q0 -129 -43 -222.5t-115 -153.5t-169 -89t-204 -29q-109 0 -205 29t-168.5 89t-115.5 153.5t-43 222.5zM463 1933h205 l174 -348h-131z" />
<glyph unicode="&#xda;" horiz-adv-x="1456" d="M197 463v1055h182v-1055q0 -82 26.5 -144.5t73.5 -104.5t111.5 -63.5t138.5 -21.5t137.5 21.5t110.5 63.5t73.5 104.5t26.5 144.5v1055h183v-1055q0 -129 -43 -222.5t-115 -153.5t-169 -89t-204 -29q-109 0 -205 29t-168.5 89t-115.5 153.5t-43 222.5zM623 1585l174 348 h204l-249 -348h-129z" />
<glyph unicode="&#xdb;" horiz-adv-x="1456" d="M197 463v1055h182v-1055q0 -82 26.5 -144.5t73.5 -104.5t111.5 -63.5t138.5 -21.5t137.5 21.5t110.5 63.5t73.5 104.5t26.5 144.5v1055h183v-1055q0 -129 -43 -222.5t-115 -153.5t-169 -89t-204 -29q-109 0 -205 29t-168.5 89t-115.5 153.5t-43 222.5zM440 1585l197 348 h182l197 -348h-160l-127 219l-129 -219h-160z" />
<glyph unicode="&#xdc;" horiz-adv-x="1456" d="M197 463v1055h182v-1055q0 -82 26.5 -144.5t73.5 -104.5t111.5 -63.5t138.5 -21.5t137.5 21.5t110.5 63.5t73.5 104.5t26.5 144.5v1055h183v-1055q0 -129 -43 -222.5t-115 -153.5t-169 -89t-204 -29q-109 0 -205 29t-168.5 89t-115.5 153.5t-43 222.5zM471 1683v168h166 v-168h-166zM819 1683v168h166v-168h-166z" />
<glyph unicode="&#xdd;" horiz-adv-x="1140" d="M-76 1518h219l428 -656l426 656h220l-555 -818v-700h-183v700zM416 1585l174 348h205l-248 -348h-131z" />
<glyph unicode="&#xde;" horiz-adv-x="1214" d="M197 0v1518h182v-330h289q113 0 203 -33t153 -90t96 -135t33 -170q0 -96 -33 -175t-96 -135.5t-153.5 -88t-202.5 -31.5h-289v-330h-182zM379 489h289q147 0 221 77t74 192q0 57 -18.5 106t-55.5 86t-92.5 57.5t-128.5 20.5h-289v-539z" />
<glyph unicode="&#xdf;" horiz-adv-x="1214" d="M182 0v1126q0 92 30 168t85 131.5t133 85t176.5 29.5t177 -29.5t134 -84t85 -129t29.5 -164.5q0 -74 -24.5 -131.5t-59.5 -99.5t-72.5 -67.5t-64.5 -35.5q123 -35 202 -133.5t79 -233.5q0 -94 -32 -177t-94.5 -144.5t-154.5 -97.5t-211 -36q-35 0 -76 5.5t-61 9.5v145 q23 -8 48.5 -12t57.5 -4q84 0 146.5 24.5t104.5 65.5t62.5 96t20.5 116.5t-20.5 117t-60.5 97.5t-99 66.5t-139 24.5h-121v143h137q59 0 106.5 20.5t81 56.5t52 83t18.5 100.5t-18.5 100.5t-51 83t-78.5 57.5t-103.5 21.5t-104.5 -21.5t-81 -57.5t-53.5 -83t-19.5 -100 v-1133h-166z" />
<glyph unicode="&#xe0;" horiz-adv-x="1153" d="M121 295q0 63 25.5 125.5t84 113t152.5 81t231 30.5h191v113q0 41 -18.5 80t-51.5 68.5t-79 47t-103 17.5q-98 0 -161.5 -29t-110.5 -76l-107 107q63 63 154.5 106t224.5 43q96 0 174 -27.5t132 -76.5t83 -115.5t29 -144.5v-758h-166v182q-33 -90 -123 -147.5t-219 -57.5 q-72 0 -134.5 25t-108.5 68t-72.5 101t-26.5 124zM295 295q0 -74 53 -120t152 -46q80 0 137 34t95 82t55.5 99t17.5 88v68h-213q-80 0 -136.5 -18.5t-92 -48.5t-52 -66.5t-16.5 -71.5zM334 1548h205l174 -350h-131z" />
<glyph unicode="&#xe1;" horiz-adv-x="1153" d="M121 295q0 63 25.5 125.5t84 113t152.5 81t231 30.5h191v113q0 41 -18.5 80t-51.5 68.5t-79 47t-103 17.5q-98 0 -161.5 -29t-110.5 -76l-107 107q63 63 154.5 106t224.5 43q96 0 174 -27.5t132 -76.5t83 -115.5t29 -144.5v-758h-166v182q-33 -90 -123 -147.5t-219 -57.5 q-72 0 -134.5 25t-108.5 68t-72.5 101t-26.5 124zM295 295q0 -74 53 -120t152 -46q80 0 137 34t95 82t55.5 99t17.5 88v68h-213q-80 0 -136.5 -18.5t-92 -48.5t-52 -66.5t-16.5 -71.5zM424 1198l176 350h205l-250 -350h-131z" />
<glyph unicode="&#xe2;" horiz-adv-x="1153" d="M121 295q0 63 25.5 125.5t84 113t152.5 81t231 30.5h191v113q0 41 -18.5 80t-51.5 68.5t-79 47t-103 17.5q-98 0 -161.5 -29t-110.5 -76l-107 107q63 63 154.5 106t224.5 43q96 0 174 -27.5t132 -76.5t83 -115.5t29 -144.5v-758h-166v182q-33 -90 -123 -147.5t-219 -57.5 q-72 0 -134.5 25t-108.5 68t-72.5 101t-26.5 124zM272 1198l199 350h182l197 -350h-162l-127 219l-127 -219h-162zM295 295q0 -74 53 -120t152 -46q80 0 137 34t95 82t55.5 99t17.5 88v68h-213q-80 0 -136.5 -18.5t-92 -48.5t-52 -66.5t-16.5 -71.5z" />
<glyph unicode="&#xe3;" horiz-adv-x="1153" d="M121 295q0 63 25.5 125.5t84 113t152.5 81t231 30.5h191v113q0 41 -18.5 80t-51.5 68.5t-79 47t-103 17.5q-98 0 -161.5 -29t-110.5 -76l-107 107q63 63 154.5 106t224.5 43q96 0 174 -27.5t132 -76.5t83 -115.5t29 -144.5v-758h-166v182q-33 -90 -123 -147.5t-219 -57.5 q-72 0 -134.5 25t-108.5 68t-72.5 101t-26.5 124zM203 1286q0 47 17.5 89t48 73t72.5 48t89 17q49 0 86 -15t74 -50l24 -25q29 -31 74 -30q43 0 75 31.5t32 74.5h120q0 -47 -17 -89t-48 -72.5t-73 -48t-89 -17.5t-89 18.5t-71 46.5l-24 25q-29 31 -74 31t-75.5 -32 t-30.5 -75h-121zM295 295q0 -74 53 -120t152 -46q80 0 137 34t95 82t55.5 99t17.5 88v68h-213q-80 0 -136.5 -18.5t-92 -48.5t-52 -66.5t-16.5 -71.5z" />
<glyph unicode="&#xe4;" horiz-adv-x="1153" d="M121 295q0 63 25.5 125.5t84 113t152.5 81t231 30.5h191v113q0 41 -18.5 80t-51.5 68.5t-79 47t-103 17.5q-98 0 -161.5 -29t-110.5 -76l-107 107q63 63 154.5 106t224.5 43q96 0 174 -27.5t132 -76.5t83 -115.5t29 -144.5v-758h-166v182q-33 -90 -123 -147.5t-219 -57.5 q-72 0 -134.5 25t-108.5 68t-72.5 101t-26.5 124zM295 295q0 -74 53 -120t152 -46q80 0 137 34t95 82t55.5 99t17.5 88v68h-213q-80 0 -136.5 -18.5t-92 -48.5t-52 -66.5t-16.5 -71.5zM303 1343v166h168v-166h-168zM653 1343v166h166v-166h-166z" />
<glyph unicode="&#xe5;" horiz-adv-x="1153" d="M121 295q0 63 25.5 125.5t84 113t152.5 81t231 30.5h191v113q0 41 -18.5 80t-51.5 68.5t-79 47t-103 17.5q-98 0 -161.5 -29t-110.5 -76l-107 107q63 63 154.5 106t224.5 43q96 0 174 -27.5t132 -76.5t83 -115.5t29 -144.5v-758h-166v182q-33 -90 -123 -147.5t-219 -57.5 q-72 0 -134.5 25t-108.5 68t-72.5 101t-26.5 124zM295 295q0 -74 53 -120t152 -46q80 0 137 34t95 82t55.5 99t17.5 88v68h-213q-80 0 -136.5 -18.5t-92 -48.5t-52 -66.5t-16.5 -71.5zM379 1380.5q0 69.5 48 118.5t120 49q70 0 118 -49t48 -118.5t-48.5 -118t-117.5 -48.5 q-72 0 -120 48.5t-48 118zM432 1380q0 -47 34 -79.5t81 -32.5t79.5 32.5t32.5 79.5t-32.5 81t-79.5 34t-81 -34t-34 -81z" />
<glyph unicode="&#xe6;" horiz-adv-x="1828" d="M121 295q0 63 25.5 125.5t84 113t152.5 81t231 30.5h191v113q0 41 -18.5 80t-51.5 68.5t-79 47t-103 17.5q-98 0 -161.5 -29t-110.5 -76l-107 107q63 63 154.5 106t224.5 43q135 0 228 -50t141 -138q66 86 155.5 133t196.5 47q92 0 177 -35t150.5 -109.5t104.5 -192.5 t39 -283h-772q8 -78 34.5 -144.5t71.5 -116t107.5 -77t140.5 -27.5q154 0 250 96l106 -104q-72 -74 -154.5 -109t-201.5 -35q-141 0 -256 62.5t-186 191.5q-45 -106 -151.5 -180t-270.5 -74q-72 0 -134.5 25t-108.5 68t-72.5 101t-26.5 124zM295 295q0 -74 53 -120t152 -46 q80 0 137 34t95 82t55.5 99t17.5 88v68h-213q-80 0 -136.5 -18.5t-92 -48.5t-52 -66.5t-16.5 -71.5zM981 645h573q-8 68 -31.5 126t-59.5 100t-84 67t-105 25t-107.5 -25t-88.5 -67t-63.5 -100t-33.5 -126z" />
<glyph unicode="&#xe7;" horiz-adv-x="1001" d="M90 547q0 125 40 229.5t110.5 179t164 116.5t201.5 42q88 0 178 -37t156 -104l-106 -107q-45 47 -103.5 72t-124.5 25q-74 0 -136 -31t-107.5 -86t-71 -132t-25.5 -167q0 -92 25.5 -169t71 -132.5t107.5 -86t136 -30.5q66 0 124 25.5t104 70.5l106 -104 q-66 -66 -150.5 -103.5t-171.5 -40.5l-28 -57q53 -8 98 -45t45 -102q0 -29 -15.5 -57.5t-45 -51t-72.5 -37t-100 -14.5q-63 0 -103.5 19.5t-74.5 43.5l61 62q18 -16 46 -28.5t65 -12.5q53 0 79.5 23.5t26.5 52.5q0 35 -36 57.5t-113 22.5l65 133q-92 16 -170 63t-134 121 t-89 169t-33 208z" />
<glyph unicode="&#xe8;" horiz-adv-x="1122" d="M90 547q0 125 38 229.5t102.5 179t151.5 116.5t187 42q90 0 175 -35t151 -109.5t104.5 -192.5t38.5 -283h-772q8 -78 36 -144.5t72 -116t106.5 -77t142.5 -27.5q152 0 249 96l107 -104q-74 -74 -156 -109t-200 -35q-115 0 -212.5 42t-168 118t-111.5 180.5t-41 229.5z M274 645h576q-8 68 -31.5 126t-60.5 100t-84 67t-104.5 25t-107.5 -25t-89 -67t-65 -100t-34 -126zM326 1548h204l175 -350h-130z" />
<glyph unicode="&#xe9;" horiz-adv-x="1122" d="M90 547q0 125 38 229.5t102.5 179t151.5 116.5t187 42q90 0 175 -35t151 -109.5t104.5 -192.5t38.5 -283h-772q8 -78 36 -144.5t72 -116t106.5 -77t142.5 -27.5q152 0 249 96l107 -104q-74 -74 -156 -109t-200 -35q-115 0 -212.5 42t-168 118t-111.5 180.5t-41 229.5z M274 645h576q-8 68 -31.5 126t-60.5 100t-84 67t-104.5 25t-107.5 -25t-89 -67t-65 -100t-34 -126zM440 1198l174 350h205l-248 -350h-131z" />
<glyph unicode="&#xea;" horiz-adv-x="1122" d="M90 547q0 125 38 229.5t102.5 179t151.5 116.5t187 42q90 0 175 -35t151 -109.5t104.5 -192.5t38.5 -283h-772q8 -78 36 -144.5t72 -116t106.5 -77t142.5 -27.5q152 0 249 96l107 -104q-74 -74 -156 -109t-200 -35q-115 0 -212.5 42t-168 118t-111.5 180.5t-41 229.5z M272 1198l199 350h182l197 -350h-162l-127 219l-127 -219h-162zM274 645h576q-8 68 -31.5 126t-60.5 100t-84 67t-104.5 25t-107.5 -25t-89 -67t-65 -100t-34 -126z" />
<glyph unicode="&#xeb;" horiz-adv-x="1122" d="M90 547q0 125 38 229.5t102.5 179t151.5 116.5t187 42q90 0 175 -35t151 -109.5t104.5 -192.5t38.5 -283h-772q8 -78 36 -144.5t72 -116t106.5 -77t142.5 -27.5q152 0 249 96l107 -104q-74 -74 -156 -109t-200 -35q-115 0 -212.5 42t-168 118t-111.5 180.5t-41 229.5z M274 645h576q-8 68 -31.5 126t-60.5 100t-84 67t-104.5 25t-107.5 -25t-89 -67t-65 -100t-34 -126zM311 1343v166h166v-166h-166zM659 1343v166h168v-166h-168z" />
<glyph unicode="&#xec;" d="M-14 1548h204l175 -350h-132zM182 0v1092h166v-1092h-166z" />
<glyph unicode="&#xed;" d="M166 1198l176 350h205l-250 -350h-131zM182 0v1092h166v-1092h-166z" />
<glyph unicode="&#xee;" d="M-23 1198l197 350h182l197 -350h-160l-127 219l-129 -219h-160zM182 0v1092h166v-1092h-166z" />
<glyph unicode="&#xef;" d="M8 1343v166h166v-166h-166zM182 0v1092h166v-1092h-166zM356 1343v166h168v-166h-168z" />
<glyph unicode="&#xf0;" horiz-adv-x="1335" d="M121 471q0 96 37 185t105.5 157t164.5 109t217 41q74 0 135.5 -21.5t109.5 -52.5t79.5 -67t46.5 -64q0 143 -24.5 257.5t-78.5 196.5l-125 -125l-94 97l127 129q-45 33 -100 50t-121 17q-111 0 -186.5 -43t-128.5 -96l-119 117q31 31 76 63.5t100 59t120.5 43t137.5 16.5 q104 0 189 -27.5t153 -80.5l105 104l96 -94l-105 -105q80 -104 120 -251.5t40 -327.5q0 -168 -32.5 -310.5t-100.5 -247t-172.5 -164t-247.5 -59.5q-119 0 -216 39t-165.5 105.5t-105.5 157t-37 192.5zM311 471q0 -63 22.5 -122.5t64.5 -106.5t104.5 -76t142.5 -29t142.5 29 t104.5 76t64.5 106.5t22.5 122.5q0 61 -22.5 121.5t-64.5 108t-103.5 76t-141.5 28.5q-82 0 -144.5 -28.5t-105.5 -76t-64.5 -108t-21.5 -121.5z" />
<glyph unicode="&#xf1;" horiz-adv-x="1273" d="M182 0v1092h166v-183q33 90 124 147.5t226 57.5q182 0 288 -110.5t106 -305.5v-698h-166v698q0 131 -67.5 198t-182.5 67q-143 0 -235.5 -105.5t-92.5 -310.5v-547h-166zM289 1286q0 47 17.5 89t48 73t72.5 48t89 17q49 0 87 -15t73 -50l24 -25q31 -31 76 -30 q43 0 74 31.5t31 74.5h123q0 -47 -18.5 -89t-49.5 -72.5t-72 -48t-88 -17.5q-49 0 -91 18.5t-71 46.5l-24 25q-29 31 -74 31t-75.5 -32t-30.5 -75h-121z" />
<glyph unicode="&#xf2;" horiz-adv-x="1183" d="M90 547q0 131 40 235.5t108.5 178t159.5 113.5t193.5 40t194 -40t159 -113.5t107.5 -178t40 -235.5t-40 -236.5t-107.5 -179.5t-159 -114t-194 -40t-193.5 40t-159.5 114t-108.5 179.5t-40 236.5zM266 547q0 -94 25.5 -171t70 -132.5t103.5 -85t126.5 -29.5t127 29.5 t103.5 85t70 132.5t26 171t-25 171t-68 131t-103 84t-130 30q-68 0 -127 -30t-103.5 -84t-70 -131t-25.5 -171zM342 1548h205l176 -350h-131z" />
<glyph unicode="&#xf3;" horiz-adv-x="1183" d="M90 547q0 131 40 235.5t108.5 178t159.5 113.5t193.5 40t194 -40t159 -113.5t107.5 -178t40 -235.5t-40 -236.5t-107.5 -179.5t-159 -114t-194 -40t-193.5 40t-159.5 114t-108.5 179.5t-40 236.5zM266 547q0 -94 25.5 -171t70 -132.5t103.5 -85t126.5 -29.5t127 29.5 t103.5 85t70 132.5t26 171t-25 171t-68 131t-103 84t-130 30q-68 0 -127 -30t-103.5 -84t-70 -131t-25.5 -171zM461 1198l174 350h205l-248 -350h-131z" />
<glyph unicode="&#xf4;" horiz-adv-x="1183" d="M90 547q0 131 40 235.5t108.5 178t159.5 113.5t193.5 40t194 -40t159 -113.5t107.5 -178t40 -235.5t-40 -236.5t-107.5 -179.5t-159 -114t-194 -40t-193.5 40t-159.5 114t-108.5 179.5t-40 236.5zM266 547q0 -94 25.5 -171t70 -132.5t103.5 -85t126.5 -29.5t127 29.5 t103.5 85t70 132.5t26 171t-25 171t-68 131t-103 84t-130 30q-68 0 -127 -30t-103.5 -84t-70 -131t-25.5 -171zM303 1198l197 350h182l199 -350h-162l-127 219l-127 -219h-162z" />
<glyph unicode="&#xf5;" horiz-adv-x="1183" d="M90 547q0 131 40 235.5t108.5 178t159.5 113.5t193.5 40t194 -40t159 -113.5t107.5 -178t40 -235.5t-40 -236.5t-107.5 -179.5t-159 -114t-194 -40t-193.5 40t-159.5 114t-108.5 179.5t-40 236.5zM233 1286q0 47 18.5 89t49.5 73t72 48t88 17q51 0 88 -15t74 -50l24 -25 q29 -31 74 -30q43 0 74.5 31.5t31.5 74.5h121q0 -47 -18.5 -89t-49 -72.5t-71.5 -48t-88 -17.5t-89 18.5t-73 46.5l-24 25q-29 31 -74 31t-76 -32t-31 -75h-121zM266 547q0 -94 25.5 -171t70 -132.5t103.5 -85t126.5 -29.5t127 29.5t103.5 85t70 132.5t26 171t-25 171 t-68 131t-103 84t-130 30q-68 0 -127 -30t-103.5 -84t-70 -131t-25.5 -171z" />
<glyph unicode="&#xf6;" horiz-adv-x="1183" d="M90 547q0 131 40 235.5t108.5 178t159.5 113.5t193.5 40t194 -40t159 -113.5t107.5 -178t40 -235.5t-40 -236.5t-107.5 -179.5t-159 -114t-194 -40t-193.5 40t-159.5 114t-108.5 179.5t-40 236.5zM266 547q0 -94 25.5 -171t70 -132.5t103.5 -85t126.5 -29.5t127 29.5 t103.5 85t70 132.5t26 171t-25 171t-68 131t-103 84t-130 30q-68 0 -127 -30t-103.5 -84t-70 -131t-25.5 -171zM334 1343v166h166v-166h-166zM682 1343v166h168v-166h-168z" />
<glyph unicode="&#xf8;" horiz-adv-x="1183" d="M90 547q0 131 40 235.5t108.5 178t159.5 113.5t194 40q141 0 254 -72l80 125h112l-116 -184q78 -74 124 -184.5t46 -251.5q0 -131 -40 -236.5t-107.5 -179.5t-159 -114t-193.5 -40q-141 0 -256 72l-78 -125h-115l117 185q-78 74 -124 185.5t-46 252.5zM266 547 q0 -178 86 -293l412 655q-76 53 -172 54q-68 0 -127 -30t-103.5 -84t-70 -131t-25.5 -171zM422 184q78 -55 170 -55q68 0 127 29.5t103 85t70 132.5t26 171q0 90 -22 164.5t-62 128.5z" />
<glyph unicode="&#xf9;" horiz-adv-x="1273" d="M182 395v697h166v-697q0 -133 68.5 -199.5t183.5 -66.5q141 0 233.5 105.5t92.5 312.5v545h166v-1092h-166v182q-33 -90 -124 -147.5t-227 -57.5q-182 0 -287.5 111.5t-105.5 306.5zM342 1548h205l174 -350h-131z" />
<glyph unicode="&#xfa;" horiz-adv-x="1273" d="M182 395v697h166v-697q0 -133 68.5 -199.5t183.5 -66.5q141 0 233.5 105.5t92.5 312.5v545h166v-1092h-166v182q-33 -90 -124 -147.5t-227 -57.5q-182 0 -287.5 111.5t-105.5 306.5zM514 1198l174 350h205l-248 -350h-131z" />
<glyph unicode="&#xfb;" horiz-adv-x="1273" d="M182 395v697h166v-697q0 -133 68.5 -199.5t183.5 -66.5q141 0 233.5 105.5t92.5 312.5v545h166v-1092h-166v182q-33 -90 -124 -147.5t-227 -57.5q-182 0 -287.5 111.5t-105.5 306.5zM348 1198l199 350h182l197 -350h-162l-127 219l-127 -219h-162z" />
<glyph unicode="&#xfc;" horiz-adv-x="1273" d="M182 395v697h166v-697q0 -133 68.5 -199.5t183.5 -66.5q141 0 233.5 105.5t92.5 312.5v545h166v-1092h-166v182q-33 -90 -124 -147.5t-227 -57.5q-182 0 -287.5 111.5t-105.5 306.5zM371 1343v166h168v-166h-168zM721 1343v166h166v-166h-166z" />
<glyph unicode="&#xfd;" horiz-adv-x="1107" d="M14 1092h191l342 -918l356 918h189l-543 -1321q-6 -16 -22.5 -44t-47 -54.5t-80 -47t-120.5 -20.5q-35 0 -75 5t-61 11v143q23 -6 45.5 -10t47.5 -4q45 0 72.5 8.5t44 21.5t25.5 28.5t15 29.5l60 148zM385 1198l174 350h205l-248 -350h-131z" />
<glyph unicode="&#xfe;" horiz-adv-x="1267" d="M182 -379v1897h166v-555q20 45 58 81.5t85.5 63.5t101.5 40t105 13q94 0 180.5 -40t152 -116.5t105.5 -186t40 -249t-40 -250t-105.5 -186.5t-151.5 -116t-181 -40q-51 0 -105 13.5t-101.5 38t-85 59.5t-58.5 78v-545h-166zM348 569.5q0 -102.5 25.5 -184.5t69.5 -139.5 t104.5 -87t128 -29.5t127 29.5t103.5 87t69.5 139.5t25.5 184.5t-24.5 184.5t-67.5 138t-103.5 87t-129.5 31q-68 0 -128.5 -31t-104.5 -87t-69.5 -138t-25.5 -184.5z" />
<glyph unicode="&#xff;" horiz-adv-x="1107" d="M14 1092h191l342 -918l356 918h189l-543 -1321q-6 -16 -22.5 -44t-47 -54.5t-80 -47t-120.5 -20.5q-35 0 -75 5t-61 11v143q23 -6 45.5 -10t47.5 -4q45 0 72.5 8.5t44 21.5t25.5 28.5t15 29.5l60 148zM295 1343v166h168v-166h-168zM645 1343v166h166v-166h-166z" />
<glyph unicode="&#x152;" horiz-adv-x="2168" d="M98 758q0 172 50.5 315.5t139.5 246.5t214 161.5t272 58.5q154 0 277 -60.5t209 -183.5v222h774v-160h-592v-508h575v-160h-575v-530h606v-160h-788v219q-86 -117 -209 -179.5t-277 -62.5q-147 0 -272 58.5t-214 162t-139.5 247t-50.5 313.5zM289 758q0 -141 38 -256 t104.5 -196t154.5 -125t188 -44q98 0 187.5 44t155 125t104.5 195.5t39 256.5q0 143 -39 257.5t-104.5 195.5t-155 125t-187.5 44q-100 0 -188 -44t-154.5 -125t-104.5 -195.5t-38 -257.5z" />
<glyph unicode="&#x153;" horiz-adv-x="1949" d="M90 547q0 131 40 235.5t108.5 178t159.5 113.5t194 40q129 0 240.5 -63.5t171.5 -176.5q57 111 162.5 175.5t228.5 64.5q92 0 177 -35t150.5 -109.5t104.5 -192.5t39 -283h-772q8 -78 34.5 -144.5t71.5 -116t107.5 -77t140.5 -27.5q80 0 140.5 23.5t111.5 72.5l104 -104 q-72 -74 -154.5 -109t-201.5 -35q-143 0 -258 66t-182 182q-66 -119 -174.5 -183.5t-241.5 -64.5q-102 0 -193.5 40t-160 114t-108.5 179.5t-40 236.5zM266 547q0 -94 25.5 -171t70 -132.5t103.5 -85t126.5 -29.5t127 29.5t103.5 85t69.5 132.5t25.5 171t-24.5 171 t-67.5 131t-103 84t-130 30q-68 0 -127 -30t-103.5 -84t-70 -131t-25.5 -171zM1102 645h575q-8 68 -31.5 126t-60.5 100t-85 67t-105.5 25t-107.5 -25t-88 -67t-63.5 -100t-33.5 -126z" />
<glyph unicode="&#x178;" horiz-adv-x="1140" d="M-76 1518h219l428 -656l426 656h220l-555 -818v-700h-183v700zM313 1647v165h166v-165h-166zM662 1647v165h165v-165h-165z" />
<glyph unicode="&#x2c6;" horiz-adv-x="681" d="M53 1198l197 350h182l197 -350h-160l-127 219l-129 -219h-160z" />
<glyph unicode="&#x2dc;" horiz-adv-x="866" d="M76 1286q0 47 18.5 89t49 73t71.5 48t88 17q51 0 88 -15t74 -50l24 -25q29 -31 74 -30q43 0 75 31.5t32 74.5h121q0 -47 -18.5 -89t-49.5 -72.5t-72 -48t-88 -17.5t-89 18.5t-73 46.5l-24 25q-29 31 -74 31t-75.5 -32t-30.5 -75h-121z" />
<glyph unicode="&#x2013;" horiz-adv-x="1273" d="M90 500v137h1094v-137h-1094z" />
<glyph unicode="&#x2014;" horiz-adv-x="1851" d="M90 500v137h1669v-137h-1669z" />
<glyph unicode="&#x2018;" d="M129 1124l131 394h129l-55 -394h-205z" />
<glyph unicode="&#x2019;" d="M141 1124l56 394h204l-129 -394h-131z" />
<glyph unicode="&#x201a;" d="M125 -197l57 394h205l-131 -394h-131z" />
<glyph unicode="&#x201c;" horiz-adv-x="864" d="M129 1124l131 394h129l-55 -394h-205zM463 1124l131 394h129l-55 -394h-205z" />
<glyph unicode="&#x201d;" horiz-adv-x="864" d="M141 1124l56 394h204l-129 -394h-131zM475 1124l55 394h205l-129 -394h-131z" />
<glyph unicode="&#x201e;" horiz-adv-x="864" d="M125 -197l57 394h205l-131 -394h-131zM459 -197l57 394h205l-131 -394h-131z" />
<glyph unicode="&#x2022;" horiz-adv-x="622" d="M152 606.5q0 65.5 47 112.5t112.5 47t112.5 -47t47 -112.5t-47 -111.5t-112.5 -46t-112.5 46t-47 111.5z" />
<glyph unicode="&#x2026;" horiz-adv-x="1122" d="M166 0v197h199v-197h-199zM463 0v197h196v-197h-196zM758 0v197h198v-197h-198z" />
<glyph unicode="&#x2039;" horiz-adv-x="591" d="M121 606l213 426h176l-213 -426l213 -424h-176z" />
<glyph unicode="&#x203a;" horiz-adv-x="591" d="M82 182l213 424l-213 426h176l213 -426l-213 -424h-176z" />
<glyph unicode="&#x20ac;" horiz-adv-x="1349" d="M0 592v98h131q-2 16 -2 34v34v36q0 17 2 33h-131v99h141q23 137 82.5 250.5t148.5 194.5t205.5 125t256.5 44q145 0 260.5 -48t201.5 -134l-116 -117q-74 72 -154 105.5t-192 33.5q-94 0 -176.5 -31.5t-147 -90t-110.5 -142.5t-66 -190h622v-99h-634q-2 -16 -3 -33v-36 v-34q0 -17 3 -34h634v-98h-622q20 -106 66 -190.5t110.5 -142.5t146.5 -90t177 -32q113 0 192.5 33t153.5 106l116 -116q-86 -86 -201.5 -134.5t-260.5 -48.5q-139 0 -256 44.5t-206 125t-148.5 194.5t-82.5 251h-141z" />
<glyph unicode="&#x2122;" horiz-adv-x="845" d="M39 1470v48h280v-48h-108v-331h-57v331h-115zM367 1139v379h90l100 -312l100 312h91v-379h-58v309l-102 -309h-64l-100 309v-309h-57z" />
<glyph unicode="&#xe000;" horiz-adv-x="1090" d="M0 1090h1090v-1090h-1090v1090z" />
<glyph unicode="&#xfb01;" horiz-adv-x="1290" d="M45 948v144h213v182q0 49 18.5 95t54.5 82t90 58.5t126 22.5q35 0 75 -5t60 -9v-146q-45 16 -92 17q-90 0 -128 -38t-38 -108v-151h252v-144h-252v-948h-166v948h-213zM934 1335v183h180v-183h-180zM940 0v1092h168v-1092h-168z" />
<glyph unicode="&#xfb02;" horiz-adv-x="1290" d="M45 948v144h213v182q0 49 18.5 95t54.5 82t90 58.5t126 22.5q35 0 75 -5t60 -9v-146q-45 16 -92 17q-90 0 -128 -38t-38 -108v-151h252v-144h-252v-948h-166v948h-213zM940 0v1518h168v-1518h-168z" />
<glyph unicode="&#xfb03;" horiz-adv-x="2045" d="M45 948v144h213v182q0 49 18.5 95t54.5 82t90 58.5t126 22.5q35 0 75 -5t60 -9v-146q-45 16 -92 17q-90 0 -128 -38t-38 -108v-151h252v-144h-252v-948h-166v948h-213zM803 948v144h213v182q0 49 18.5 95t54 82t90 58.5t126.5 22.5q35 0 74.5 -5t60.5 -9v-146 q-45 16 -92 17q-90 0 -128 -38t-38 -108v-151h252v-144h-252v-948h-166v948h-213zM1690 1335v183h182v-183h-182zM1698 0v1092h166v-1092h-166z" />
<glyph unicode="&#xfb04;" horiz-adv-x="2045" d="M45 948v144h213v182q0 49 18.5 95t54.5 82t90 58.5t126 22.5q35 0 75 -5t60 -9v-146q-45 16 -92 17q-90 0 -128 -38t-38 -108v-151h252v-144h-252v-948h-166v948h-213zM803 948v144h213v182q0 49 18.5 95t54 82t90 58.5t126.5 22.5q35 0 74.5 -5t60.5 -9v-146 q-45 16 -92 17q-90 0 -128 -38t-38 -108v-151h252v-144h-252v-948h-166v948h-213zM1698 0v1518h166v-1518h-166z" />
</font>
</defs>
</svg>
